<?xml version="1.0" standalone="no"?>
<!DOCTYPE svg PUBLIC "-//W3C//DTD SVG 20010904//EN"
 "http://www.w3.org/TR/2001/REC-SVG-20010904/DTD/svg10.dtd">
<svg version="1.0" xmlns="http://www.w3.org/2000/svg"
 width="70.000000pt" height="70.000000pt" viewBox="0 0 70.000000 70.000000"
 preserveAspectRatio="xMidYMid meet">
<metadata>
Created by potrace 1.11, written by Peter Selinger 2001-2013
</metadata>
<g transform="translate(0.000000,70.000000) scale(0.100000,-0.100000)"
fill="#000000" stroke="none">
<path d="M269 683 c-1 -5 -2 -57 -4 -118 -1 -60 -3 -114 -4 -120 0 -6 -49 -10
-126 -9 l-125 1 0 -83 0 -83 128 -3 127 -3 0 -125 1 -125 82 0 c45 0 83 2 83
5 1 3 2 59 3 125 l1 120 128 3 127 3 1 29 c0 17 0 50 0 75 0 25 0 49 0 54 -1
5 -52 8 -113 7 -62 -1 -120 1 -129 5 -12 6 -15 27 -14 116 1 59 0 114 -3 121
-5 13 -161 18 -163 5z"/>
</g>
</svg>
